<?xml version="1.0" encoding="UTF-8" standalone="no"?>
<!-- Created with Inkscape (http://www.inkscape.org/) -->

<svg
   xmlns:dc="http://purl.org/dc/elements/1.1/"
   xmlns:cc="http://creativecommons.org/ns#"
   xmlns:rdf="http://www.w3.org/1999/02/22-rdf-syntax-ns#"
   xmlns:svg="http://www.w3.org/2000/svg"
   xmlns="http://www.w3.org/2000/svg"
   xmlns:sodipodi="http://sodipodi.sourceforge.net/DTD/sodipodi-0.dtd"
   xmlns:inkscape="http://www.inkscape.org/namespaces/inkscape"
   width="744.09448819"
   height="1052.3622047"
   id="svg2"
   version="1.1"
   inkscape:version="0.48.4 r9939"
   sodipodi:docname="First.svg">
  <defs
     id="defs4" />
  <sodipodi:namedview
     id="base"
     pagecolor="#ffffff"
     bordercolor="#666666"
     borderopacity="1.0"
     inkscape:pageopacity="0.0"
     inkscape:pageshadow="2"
     inkscape:zoom="0.35"
     inkscape:cx="370.71429"
     inkscape:cy="383.53438"
     inkscape:document-units="px"
     inkscape:current-layer="layer1"
     showgrid="false"
     inkscape:window-width="1366"
     inkscape:window-height="743"
     inkscape:window-x="0"
     inkscape:window-y="0"
     inkscape:window-maximized="1" />
  <metadata
     id="metadata7">
    <rdf:RDF>
      <cc:Work
         rdf:about="">
        <dc:format>image/svg+xml</dc:format>
        <dc:type
           rdf:resource="http://purl.org/dc/dcmitype/StillImage" />
        <dc:title />
      </cc:Work>
    </rdf:RDF>
  </metadata>
  <g
     inkscape:label="Layer 1"
     inkscape:groupmode="layer"
     id="layer1">
    <path
       sodipodi:type="star"
       style="fill:#000000;fill-rule:evenodd;stroke:#000000;stroke-width:1px;stroke-linecap:butt;stroke-linejoin:miter;stroke-opacity:1"
       id="path2985"
       sodipodi:sides="30"
       sodipodi:cx="300"
       sodipodi:cy="232.36218"
       sodipodi:r1="1145.4204"
       sodipodi:r2="717.38631"
       sodipodi:arg1="-2.605573"
       sodipodi:arg2="0.081310988"
       inkscape:flatsided="false"
       inkscape:rounded="0"
       inkscape:randomized="0"
       d="M -684.77327,-352.62458 1015.0161,290.62932 -541.62803,-544.58709 987.27687,438.01625 -361.6996,-702.59319 929.50034,576.41511 -152.85172,-819.73726 844.21162,699.77721 75.787948,-890.89953 735.13824,802.71102 314.22676,-912.96987 607.04724,880.71786 552.0438,-884.98371 465.53679,930.38844 778.84531,-808.16417 316.79159,949.55193 984.71898,-685.86863 167.31253,937.37078 1160.6672,-523.44201 23.632535,894.37738 1299,-327.98311 -107.96887,822.45073 1393.6718,-108.03443 -221.74008,724.73438 1440.5449,126.79121 -312.70874,605.499 1437.5707,366.23081 -376.89909,469.95576 1384.8792,599.81971 -411.50571,324.02853 1284.7733,817.34895 -415.01611,174.09505 1141.628,1009.3115 -387.27687,26.708118 961.6996,1167.3176 -329.50034,-111.69074 752.85172,1284.4616 -244.21162,-235.05284 524.21205,1355.6239 -135.13824,-337.98666 285.77324,1377.6942 -7.0472356,-415.9935 47.956204,1349.7081 134.46321,-465.66408 -178.84531,1272.8885 283.20841,-484.82756 -384.71898,1150.593 432.68747,-472.64642 -560.66715,988.16637 576.36746,-429.65301 -699.00004,792.70747 707.96887,-357.72636 -793.67182,572.7588 821.74008,-260.01001 -840.54491,337.93316 912.70874,-140.77464 -837.5707,98.493557 976.89909,-5.2313933 -784.8792,-135.09534 1011.5057,140.69583 z"
       inkscape:transform-center-x="-5.5867248"
       inkscape:transform-center-y="-6.8057495"
       transform="matrix(0.61633848,0,0,0.7708347,178.30069,306.30791)" />
  </g>
</svg>
